<?xml version="1.0" standalone="no"?>
<!DOCTYPE svg PUBLIC "-//W3C//DTD SVG 20010904//EN"
 "http://www.w3.org/TR/2001/REC-SVG-20010904/DTD/svg10.dtd">
<svg version="1.0" xmlns="http://www.w3.org/2000/svg"
 width="268.000000pt" height="133.000000pt" viewBox="0 0 268.000000 133.000000"
 preserveAspectRatio="xMidYMid meet">

<g transform="translate(0.000000,133.000000) scale(0.100000,-0.100000)"
fill="#000000" stroke="none">
<path d="M440 610 l0 -230 50 0 50 0 0 230 0 230 -50 0 -50 0 0 -230z"/>
<path d="M640 770 c0 -33 -3 -40 -20 -40 -17 0 -20 -7 -20 -45 0 -38 3 -45 20
-45 18 0 20 -7 20 -72 0 -139 28 -178 129 -182 l46 -1 3 43 c3 36 0 42 -17 42
-46 0 -51 8 -51 91 l0 79 30 0 c29 0 30 2 30 45 0 43 -1 45 -30 45 -28 0 -30
2 -30 40 l0 40 -55 0 -55 0 0 -40z"/>
<path d="M83 714 c-53 -27 -78 -77 -78 -159 0 -83 25 -133 79 -159 60 -28 139
-13 165 31 9 15 10 12 11 -14 0 -33 0 -33 50 -33 l50 0 0 175 0 175 -50 0
c-50 0 -50 0 -50 -32 -1 -27 -2 -30 -11 -15 -26 44 -108 59 -166 31z m152 -99
c34 -33 34 -87 0 -120 -51 -51 -125 -16 -125 59 0 77 73 114 125 61z"/>
<path d="M946 707 c-56 -31 -81 -78 -81 -152 0 -77 25 -122 85 -152 25 -13 63
-23 86 -23 55 0 122 37 146 80 l18 35 -54 3 c-45 2 -59 -1 -76 -18 -11 -11
-29 -20 -39 -20 -25 0 -59 30 -63 55 -3 19 3 20 115 23 l117 3 0 41 c0 116
-145 187 -254 125z m134 -77 c38 -38 27 -50 -49 -50 -65 0 -69 1 -64 20 13 47
78 65 113 30z"/>
<path d="M1270 555 l0 -175 50 0 50 0 0 98 c0 114 9 130 79 139 l41 6 0 53 c0
30 -4 54 -9 54 -21 0 -67 -22 -88 -42 l-23 -21 0 31 c0 32 -1 32 -50 32 l-50
0 0 -175z"/>
<path d="M1540 555 l0 -175 50 0 50 0 0 94 c0 112 12 134 78 143 l42 6 0 53
c0 30 -4 54 -9 54 -21 0 -67 -22 -88 -42 l-23 -21 0 31 c0 32 -1 32 -50 32
l-50 0 0 -175z"/>
<path d="M1873 714 c-53 -27 -78 -77 -78 -159 0 -83 25 -133 79 -159 60 -28
139 -13 165 31 9 15 10 12 11 -14 0 -33 0 -33 50 -33 l50 0 0 175 0 175 -50 0
c-50 0 -50 0 -50 -32 -1 -27 -2 -30 -11 -15 -26 44 -108 59 -166 31z m154
-100 c22 -22 25 -32 20 -67 -14 -106 -147 -100 -147 7 0 78 73 113 127 60z"/>
<path d="M619 248 c-1 -24 -1 -59 0 -78 3 -49 -28 -78 -64 -62 -20 9 -25 19
-25 51 0 46 19 66 56 57 17 -5 23 -3 19 4 -10 17 -61 11 -78 -8 -23 -25 -22
-85 1 -105 22 -20 63 -22 80 -5 9 9 12 9 12 0 0 -7 5 -12 10 -12 6 0 10 40 10
100 0 60 -4 100 -10 100 -5 0 -11 -19 -11 -42z"/>
<path d="M36 208 c-22 -31 -20 -74 4 -98 22 -22 60 -26 78 -8 9 9 12 9 12 0 0
-7 5 -12 10 -12 6 0 10 30 10 70 0 40 -4 70 -10 70 -5 0 -10 -5 -10 -12 0 -9
-3 -9 -12 0 -20 20 -65 14 -82 -10z m75 2 c27 -15 27 -85 0 -100 -27 -14 -37
-13 -55 6 -20 20 -20 68 0 88 18 19 28 20 55 6z"/>
<path d="M216 214 c-32 -32 -28 -92 8 -116 16 -11 59 -9 76 3 11 8 8 9 -14 4
-18 -4 -37 0 -52 10 -49 32 -16 114 40 103 14 -3 23 -1 20 3 -9 15 -62 10 -78
-7z"/>
<path d="M357 212 c-23 -25 -22 -85 1 -105 21 -19 45 -21 73 -7 13 7 19 7 19
0 0 -5 5 -10 10 -10 6 0 10 30 10 70 0 40 -4 70 -10 70 -5 0 -10 -5 -10 -12 0
-9 -3 -9 -12 0 -18 18 -63 14 -81 -6z m75 -9 c23 -21 23 -55 -1 -84 -16 -20
-22 -22 -45 -11 -33 15 -43 54 -22 87 19 29 42 32 68 8z"/>
<path d="M700 210 c-41 -41 -12 -120 44 -120 30 0 56 9 56 20 0 5 -13 3 -29
-3 -25 -9 -33 -8 -50 8 -37 32 -27 45 35 45 53 0 55 1 48 23 -3 12 -11 28 -16
35 -16 19 -66 14 -88 -8z m78 -2 c25 -25 13 -38 -33 -38 -48 0 -55 9 -29 34
18 19 45 21 62 4z"/>
<path d="M850 160 c0 -40 4 -70 10 -70 6 0 10 25 10 55 0 50 3 57 25 67 35 16
46 2 55 -69 l7 -58 2 46 c1 59 30 100 58 83 13 -8 19 -26 21 -68 2 -31 7 -56
12 -56 13 0 13 96 0 121 -12 22 -59 26 -78 7 -9 -9 -15 -9 -24 0 -15 15 -51
15 -66 0 -9 -9 -12 -9 -12 0 0 7 -4 12 -10 12 -6 0 -10 -30 -10 -70z"/>
<path d="M1112 178 c32 -81 34 -103 7 -122 -17 -11 -19 -16 -8 -16 9 0 23 8
32 18 21 23 79 174 65 170 -7 -3 -19 -25 -27 -51 -9 -26 -20 -47 -25 -48 -5 0
-18 22 -28 50 -11 28 -24 51 -29 51 -5 0 1 -24 13 -52z"/>
</g>
</svg>
